<?xml version="1.0" encoding="utf-8"?>
<!-- Svg Vector Icons : http://www.onlinewebfonts.com/icon -->
<!DOCTYPE svg PUBLIC "-//W3C//DTD SVG 1.1//EN" "http://www.w3.org/Graphics/SVG/1.1/DTD/svg11.dtd">
<svg version="1.1" xmlns="http://www.w3.org/2000/svg" xmlns:xlink="http://www.w3.org/1999/xlink" x="0px" y="0px" viewBox="0 0 1000 1000" enable-background="new 0 0 1000 1000" xml:space="preserve">
<metadata> Svg Vector Icons : http://www.onlinewebfonts.com/icon </metadata>
<g><path d="M502.8,459l-431.5-213L505,10l423.7,232.9L502.8,459z"/><path d="M523.6,990l403.8-250.7V285.1L523.6,489V990z"/><path d="M71.3,282.8v454.2l406.5,250.7V486.7L71.3,282.8z M351.6,482.3l-6.4,12.9c-3.3,6.7-11.6,9.6-18.3,6.2l-133.5-66c-6.7-3.3-9.6-11.6-6.2-18.3l6.4-12.9c3.3-6.7,11.6-9.6,18.3-6.2l133.5,66C352,467.4,354.9,475.6,351.6,482.3z"/></g>
</svg>